<svg width="34" height="34" viewBox="0 0 34 34" fill="none" xmlns="http://www.w3.org/2000/svg">
<path d="M1 17.2455C1 8.63909 7.85668 1 17.2455 1C26.6344 1 33.491 8.63909 33.491 17.2455C33.491 25.852 26.6344 33.491 17.2455 33.491C7.85668 33.491 1 25.852 1 17.2455Z" stroke="black"/>
<path d="M7.0921 29.4296C7.0921 29.4296 12.3326 21.3069 17.2456 21.3069C21.9626 21.3069 27.399 29.4296 27.399 29.4296" stroke="black"/>
<path d="M12.1688 13.1841C12.1688 15.9741 14.7134 18.5438 17.8096 18.2357C20.6134 17.9567 22.3223 15.7105 22.3223 13.1841C22.3223 10.6578 20.6134 8.41157 17.8096 8.13258C14.7134 7.82449 12.1688 10.3942 12.1688 13.1841Z" stroke="black"/>
<path d="M23.3376 19.2762H29.4297" stroke="black" stroke-linecap="round"/>
<path d="M26.3837 16.2302V22.3222" stroke="black" stroke-linecap="round"/>
</svg>
