<svg width="94" height="106" viewBox="0 0 94 106" fill="none" xmlns="http://www.w3.org/2000/svg">
<path fill-rule="evenodd" clip-rule="evenodd" d="M34.577 4.9855H60.0307V106H34.577V4.9855Z" fill="#2B2B2A"/>
<path fill-rule="evenodd" clip-rule="evenodd" d="M11.8999 38.6038H32.8714V106H11.8999V38.6038Z" fill="#2B2B2A"/>
<path fill-rule="evenodd" clip-rule="evenodd" d="M1.65454 69.5005H14.3013V106H1.65454V69.5005Z" fill="#2B2B2A"/>
<path fill-rule="evenodd" clip-rule="evenodd" d="M0 67.3713H12.6467V70.1928H0V67.3713Z" fill="#2B2B2A"/>
<path fill-rule="evenodd" clip-rule="evenodd" d="M5.33398 65.0655H10.4268V67.887H5.33398V65.0655Z" fill="#2B2B2A"/>
<path fill-rule="evenodd" clip-rule="evenodd" d="M32.8714 22.3121V38.607V41.0846L11.8999 41.4264V38.6037L32.8714 22.3121Z" fill="#2B2B2A"/>
<path fill-rule="evenodd" clip-rule="evenodd" d="M62.03 65.3698H83.0016V106H62.03V65.3698Z" fill="#2B2B2A"/>
<path fill-rule="evenodd" clip-rule="evenodd" d="M72.5237 24.4506H93.3001V63.5117H72.5237V24.4506Z" fill="#2B2B2A"/>
<path fill-rule="evenodd" clip-rule="evenodd" d="M84.7073 106H93.3001V60.4151H84.7073V106Z" fill="#2B2B2A"/>
<path fill-rule="evenodd" clip-rule="evenodd" d="M74.3918 20.0982H91.4316V26.3865H74.3918V20.0982Z" fill="#2B2B2A"/>
<path fill-rule="evenodd" clip-rule="evenodd" d="M76.4309 17.3312H89.0775V22.0111H76.4309V17.3312Z" fill="#2B2B2A"/>
<path fill-rule="evenodd" clip-rule="evenodd" d="M82.0017 -5.72205e-06H83.8223V20.0983H82.0017V-5.72205e-06Z" fill="#2B2B2A"/>
<path fill-rule="evenodd" clip-rule="evenodd" d="M53.7782 30.6791H70.8181V63.5117H53.7782V30.6791Z" fill="#2B2B2A"/>
<path fill-rule="evenodd" clip-rule="evenodd" d="M55.5546 30.6789H92.3098V106H55.5546V30.6789Z" fill="#2B2B2A"/>
<path fill-rule="evenodd" clip-rule="evenodd" d="M32.8634 22.3122H43.2234V106H31.7808V23.3947L32.8634 22.3122Z" fill="#2B2B2A"/>
<path fill-rule="evenodd" clip-rule="evenodd" d="M61.5355 32.7929H63.8104C64.0779 32.7929 64.2967 33.0115 64.2967 33.2792V35.5541C64.2967 35.822 64.0779 36.0405 63.8104 36.0405H61.5355C61.2679 36.0405 61.0492 35.822 61.0492 35.5541V33.2792C61.0492 33.0115 61.2679 32.7929 61.5355 32.7929Z" fill="#FAD046"/>
<path fill-rule="evenodd" clip-rule="evenodd" d="M68.2426 32.7929H70.5174C70.785 32.7929 71.0037 33.0115 71.0037 33.2792V35.5541C71.0037 35.822 70.785 36.0405 70.5174 36.0405H68.2426C67.975 36.0405 67.7562 35.822 67.7562 35.5541V33.2792C67.7562 33.0115 67.975 32.7929 68.2426 32.7929Z" fill="#FAD046"/>
<path fill-rule="evenodd" clip-rule="evenodd" d="M68.2426 39.8003H70.5174C70.785 39.8003 71.0037 40.0189 71.0037 40.2866V42.5615C71.0037 42.8292 70.785 43.0478 70.5174 43.0478H68.2426C67.975 43.0478 67.7562 42.8292 67.7562 42.5615V40.2866C67.7562 40.0189 67.975 39.8003 68.2426 39.8003Z" fill="#FAD046"/>
<path fill-rule="evenodd" clip-rule="evenodd" d="M61.8114 46.5367H64.0862C64.3538 46.5367 64.5725 46.7555 64.5725 47.023V49.2978C64.5725 49.5653 64.3538 49.7841 64.0862 49.7841H61.8114C61.5438 49.7841 61.3251 49.5653 61.3251 49.2978V47.023C61.3251 46.7555 61.5438 46.5367 61.8114 46.5367Z" fill="#FAD046"/>
<path fill-rule="evenodd" clip-rule="evenodd" d="M75.9017 26.3449H78.1012C78.7526 26.3449 79.2852 26.8777 79.2852 27.5289V27.7415C79.2852 28.3926 78.7526 28.9255 78.1012 28.9255H75.9017C75.2506 28.9255 74.7178 28.3926 74.7178 27.7415V27.5289C74.7178 26.8777 75.2506 26.3449 75.9017 26.3449Z" fill="#FAD046"/>
<path fill-rule="evenodd" clip-rule="evenodd" d="M87.8971 26.3449H90.0966C90.7479 26.3449 91.2806 26.8777 91.2806 27.5289V27.7415C91.2806 28.3926 90.7479 28.9255 90.0966 28.9255H87.8971C87.246 28.9255 86.7133 28.3926 86.7133 27.7415V27.5289C86.7133 26.8777 87.246 26.3449 87.8971 26.3449Z" fill="#FAD046"/>
<path fill-rule="evenodd" clip-rule="evenodd" d="M81.8994 30.3599H84.0989C84.7502 30.3599 85.2828 30.8927 85.2828 31.544V31.7565C85.2828 32.4078 84.7502 32.9406 84.0989 32.9406H81.8994C81.2482 32.9406 80.7155 32.4078 80.7155 31.7565V31.544C80.7155 30.8927 81.2482 30.3599 81.8994 30.3599Z" fill="#FAD046"/>
<path fill-rule="evenodd" clip-rule="evenodd" d="M87.8971 38.2659H90.0966C90.7479 38.2659 91.2806 38.7986 91.2806 39.4498V39.6623C91.2806 40.3136 90.7479 40.8464 90.0966 40.8464H87.8971C87.246 40.8464 86.7133 40.3136 86.7133 39.6623V39.4498C86.7133 38.7986 87.246 38.2659 87.8971 38.2659Z" fill="#FAD046"/>
<path fill-rule="evenodd" clip-rule="evenodd" d="M87.8971 45.7956H90.0966C90.7479 45.7956 91.2806 46.3285 91.2806 46.9796V47.1922C91.2806 47.8434 90.7479 48.3762 90.0966 48.3762H87.8971C87.246 48.3762 86.7133 47.8434 86.7133 47.1922V46.9796C86.7133 46.3285 87.246 45.7956 87.8971 45.7956Z" fill="#FAD046"/>
<path fill-rule="evenodd" clip-rule="evenodd" d="M75.9017 45.7956H78.1012C78.7526 45.7956 79.2852 46.3285 79.2852 46.9796V47.1922C79.2852 47.8434 78.7526 48.3762 78.1012 48.3762H75.9017C75.2506 48.3762 74.7178 47.8434 74.7178 47.1922V46.9796C74.7178 46.3285 75.2506 45.7956 75.9017 45.7956Z" fill="#FAD046"/>
<path fill-rule="evenodd" clip-rule="evenodd" d="M38.1368 37.1977H40.9255C41.8524 37.1977 42.6105 37.956 42.6105 38.8829V39.1853C42.6105 40.1121 41.8524 40.8704 40.9255 40.8704H38.1368C37.2099 40.8704 36.4518 40.1121 36.4518 39.1853V38.8829C36.4518 37.956 37.2099 37.1977 38.1368 37.1977Z" fill="#FAD046"/>
<path fill-rule="evenodd" clip-rule="evenodd" d="M13.8358 38.8859H17.948C18.3095 38.8859 18.6049 39.1815 18.6049 39.5428V43.1446C18.6049 43.506 18.3095 43.8016 17.948 43.8016H13.8358C13.4747 43.8016 13.179 43.506 13.179 43.1446V39.5428C13.179 39.1815 13.4747 38.8859 13.8358 38.8859Z" fill="#FAD046"/>
<path fill-rule="evenodd" clip-rule="evenodd" d="M19.9773 44.6377H24.0896C24.4511 44.6377 24.7465 44.9333 24.7465 45.2947V48.8965C24.7465 49.2579 24.4511 49.5535 24.0896 49.5535H19.9773C19.6162 49.5535 19.3204 49.2579 19.3204 48.8965V45.2947C19.3204 44.9333 19.6162 44.6377 19.9773 44.6377Z" fill="#FAD046"/>
<path fill-rule="evenodd" clip-rule="evenodd" d="M26.119 38.8859H30.2313C30.5927 38.8859 30.8882 39.1815 30.8882 39.5428V43.1446C30.8882 43.506 30.5927 43.8016 30.2313 43.8016H26.119C25.7579 43.8016 25.4622 43.506 25.4622 43.1446V39.5428C25.4622 39.1815 25.7579 38.8859 26.119 38.8859Z" fill="#FAD046"/>
<path fill-rule="evenodd" clip-rule="evenodd" d="M53.1959 59.9963C50.6206 59.9963 48.533 62.2464 48.533 65.0219C48.533 67.7975 50.6206 70.0473 53.1959 70.0473C55.7713 70.0473 57.8589 67.7975 57.8589 65.0219C57.8589 62.2464 55.7713 59.9963 53.1959 59.9963Z" fill="#FAD046"/>
<path fill-rule="evenodd" clip-rule="evenodd" d="M27.6772 68.9054C24.6505 68.9054 22.1957 71.3591 22.1957 74.3874C22.1957 77.415 24.6505 79.8688 27.6772 79.8688C30.7053 79.8688 33.1592 77.415 33.1592 74.3874C33.1592 71.3591 30.7053 68.9054 27.6772 68.9054Z" fill="#FFF1C4"/>
<path fill-rule="evenodd" clip-rule="evenodd" d="M21.1131 80.3533C22.3456 80.3729 23.9715 80.8768 25.651 81.1291C27.3306 81.3813 29.0636 81.3812 30.4601 81.3552C31.857 81.3288 32.9174 81.2762 33.9571 81.8115C34.9968 82.3474 36.0154 83.4704 37.8042 84.5285C39.5937 85.5862 42.1532 86.5789 45.0365 86.2952C47.9193 86.0122 51.1261 84.4534 53.1548 83.9576C55.1834 83.4618 56.0336 84.0285 56.2074 84.58C56.3806 85.131 55.8762 85.6664 53.6116 87.0751C51.3464 88.4836 47.3211 90.766 43.6189 91.1595C39.9168 91.553 36.5378 90.0586 34.8485 89.6889C33.1592 89.3198 32.7106 89.7961 32.2456 92.0763C31.7807 94.3567 31.7807 96.2819 31.7807 99.3486C31.7807 102.415 31.7807 104.042 32.1871 106H13.3841C14.9423 103.891 16.2555 101.61 17.3758 99.2182C18.4962 96.8264 18.8859 95.3054 19.2312 93.1761C19.5765 91.0469 19.8867 88.7855 19.4916 88.5399C19.0964 88.2941 17.9951 89.9595 16.5531 91.0344C15.1112 92.1089 13.3289 92.5928 11.7928 92.0331C10.2567 91.4735 8.96744 89.8702 7.88383 87.8513C6.80087 85.8324 5.92454 83.3968 5.72376 81.9664C5.52345 80.5358 5.99925 80.1093 6.71804 80.7944C7.43679 81.4797 8.39913 83.2761 9.53148 84.8253C10.6638 86.3743 11.966 87.6764 13.1319 87.4075C14.2971 87.139 15.3255 85.2994 16.1482 84.0139C16.9704 82.7284 17.5869 81.9961 18.3143 81.3975C19.0418 80.7988 19.8808 80.3339 21.1131 80.3533Z" fill="#FFF1C4"/>
<path fill-rule="evenodd" clip-rule="evenodd" d="M79.23 67.6981C76.4099 67.6981 74.1224 69.9845 74.1224 72.8062C74.1224 75.6274 76.4099 77.9139 79.23 77.9139C82.0517 77.9139 84.3382 75.6274 84.3382 72.8062C84.3382 69.9845 82.0517 67.6981 79.23 67.6981Z" fill="#FFF1C4"/>
<path fill-rule="evenodd" clip-rule="evenodd" d="M76.2992 78.6717C77.8949 79.0419 79.5397 79.3201 80.7851 79.3201C82.0306 79.3201 82.876 79.0419 84.1668 79.7731C85.4578 80.5043 87.1946 82.245 88.4867 84.1865C89.7791 86.1274 90.6277 88.2691 91.1729 89.8773C91.7179 91.4848 91.9604 92.5597 91.399 93.7251C90.8373 94.8903 89.4728 96.1465 88.3632 97.0359C87.2537 97.9257 86.3995 98.448 85.5114 98.8046C84.6227 99.1607 83.7003 99.3513 82.7104 99.301C81.7204 99.2507 80.6634 98.96 80.7066 98.5611C80.7494 98.1622 81.8926 97.6545 82.9025 97.1571C83.9125 96.6597 84.7893 96.172 85.6699 95.3553C86.5505 94.5385 87.4344 93.3933 87.3273 91.8658C87.2207 90.3389 86.1218 88.431 85.1845 87.4308C84.247 86.431 83.4697 86.3396 82.6914 87.7637C81.9132 89.1871 81.1337 92.1262 80.7445 94.5028C80.3559 96.8794 80.3575 98.6937 80.416 100.439C80.4734 102.144 80.5849 103.784 81.006 106H64.8404C65.689 102.171 66.5724 99.5586 67.361 96.6407C68.2292 93.429 68.9832 89.8475 69.3599 87.6684C69.7371 85.4893 69.7371 84.712 69.4378 83.9678C69.139 83.2236 68.541 82.5119 66.7699 82.0178C64.9995 81.5236 62.0557 81.2465 59.4187 80.9828C56.7817 80.7188 54.4511 80.467 52.5318 80.2733C50.6125 80.079 49.104 79.9415 48.9785 79.3932C48.8529 78.8449 50.1097 77.8853 53.348 77.514C56.5864 77.1427 61.8061 77.3597 65.1803 77.4355C68.5545 77.5107 70.0829 77.4447 71.6202 77.6423C73.1572 77.8404 74.7036 78.3015 76.2992 78.6717Z" fill="#FFF1C4"/>
<path fill-rule="evenodd" clip-rule="evenodd" d="M37.0866 64.5915C39.2765 66.8724 42.6453 69.7946 46.2359 71.4411C49.8271 73.0876 53.6402 73.4584 57.0199 72.3911C60.3989 71.3232 63.3438 68.8177 66.3353 65.8738C69.3263 62.9299 72.3638 59.5477 74.2658 57.8444C76.1672 56.1405 76.9336 56.1145 76.9248 56.8772C76.9162 57.6397 76.1336 59.19 74.505 61.6439C72.8768 64.0979 70.4028 67.4559 68.4494 70.1459C66.4961 72.8359 65.0628 74.8581 63.675 77.5552C62.2878 80.2516 60.9461 83.6231 60.3756 87.2662C59.8046 90.9088 60.0049 94.8237 60.9488 98.6141C61.5745 101.127 62.5265 103.585 63.5819 106H38.4359C40.0111 103.989 41.5714 101.882 42.773 99.8953C45.1198 96.0155 46.0974 92.5981 45.9994 88.9415C45.9019 85.2841 44.7291 81.3872 42.4542 77.8582C40.1793 74.3292 36.8317 70.2141 34.5768 67.3823C32.3219 64.5505 31.3196 62.5045 30.7404 61.1335C30.1613 59.7625 29.8852 58.0375 30.2522 57.8314C30.6192 57.6252 31.9209 58.5913 32.9021 59.6315C33.8835 60.6719 34.8962 62.3113 37.0866 64.5915Z" fill="#FAD046"/>
<path fill-rule="evenodd" clip-rule="evenodd" d="M45.7733 41.9645H48.5621C49.4889 41.9645 50.247 42.7229 50.247 43.6496V43.9522C50.247 44.879 49.4889 45.6372 48.5621 45.6372H45.7733C44.8464 45.6372 44.0883 44.879 44.0883 43.9522V43.6496C44.0883 42.7229 44.8464 41.9645 45.7733 41.9645Z" fill="#FAD046"/>
<path fill-rule="evenodd" clip-rule="evenodd" d="M45.7733 30.351H48.5621C49.4889 30.351 50.247 31.1092 50.247 32.0361V32.3386C50.247 33.2653 49.4889 34.0237 48.5621 34.0237H45.7733C44.8464 34.0237 44.0883 33.2653 44.0883 32.3386V32.0361C44.0883 31.1092 44.8464 30.351 45.7733 30.351Z" fill="#FAD046"/>
<path fill-rule="evenodd" clip-rule="evenodd" d="M53.4098 26.3446H56.1986C57.1253 26.3446 57.8835 27.1028 57.8835 28.0296V28.3321C57.8835 29.2589 57.1253 30.0173 56.1986 30.0173H53.4098C52.483 30.0173 51.7249 29.2589 51.7249 28.3321V28.0296C51.7249 27.1028 52.483 26.3446 53.4098 26.3446Z" fill="#FAD046"/>
<path fill-rule="evenodd" clip-rule="evenodd" d="M38.1368 24.5081H40.9255C41.8524 24.5081 42.6105 25.2664 42.6105 26.1932V26.4957C42.6105 27.4225 41.8524 28.1808 40.9255 28.1808H38.1368C37.2099 28.1808 36.4518 27.4225 36.4518 26.4957V26.1932C36.4518 25.2664 37.2099 24.5081 38.1368 24.5081Z" fill="#FAD046"/>
<path fill-rule="evenodd" clip-rule="evenodd" d="M53.4098 17.1866H56.1986C57.1253 17.1866 57.8835 17.9449 57.8835 18.8717V19.1742C57.8835 20.101 57.1253 20.8594 56.1986 20.8594H53.4098C52.483 20.8594 51.7249 20.101 51.7249 19.1742V18.8717C51.7249 17.9449 52.483 17.1866 53.4098 17.1866Z" fill="#FAD046"/>
<path fill-rule="evenodd" clip-rule="evenodd" d="M45.7733 12.6054H48.5621C49.4889 12.6054 50.247 13.3637 50.247 14.2906V14.593C50.247 15.5199 49.4889 16.2781 48.5621 16.2781H45.7733C44.8464 16.2781 44.0883 15.5199 44.0883 14.593V14.2906C44.0883 13.3637 44.8464 12.6054 45.7733 12.6054Z" fill="#FAD046"/>
<path fill-rule="evenodd" clip-rule="evenodd" d="M38.1368 8.05838H40.9255C41.8524 8.05838 42.6105 8.81662 42.6105 9.74351V10.0459C42.6105 10.9728 41.8524 11.7311 40.9255 11.7311H38.1368C37.2099 11.7311 36.4518 10.9728 36.4518 10.0459V9.74351C36.4518 8.81662 37.2099 8.05838 38.1368 8.05838Z" fill="#FAD046"/>
<path fill-rule="evenodd" clip-rule="evenodd" d="M53.4098 8.10116H56.1986C57.1253 8.10116 57.8835 8.85941 57.8835 9.78629V10.0887C57.8835 11.0156 57.1253 11.7739 56.1986 11.7739H53.4098C52.483 11.7739 51.7249 11.0156 51.7249 10.0887V9.78629C51.7249 8.85941 52.483 8.10116 53.4098 8.10116Z" fill="#FAD046"/>
</svg>
