<svg width="1480" height="1193" viewBox="0 0 1480 1193" fill="none" xmlns="http://www.w3.org/2000/svg">
<g filter="url(#filter0_f_507_162)">
<circle cx="165.594" cy="170.087" r="69.5942" fill="#FFCB16"/>
</g>
<g filter="url(#filter1_f_507_162)">
<circle cx="352.891" cy="257.43" r="60.7198" fill="#FFCB16"/>
</g>
<g filter="url(#filter2_f_507_162)">
<circle cx="536.452" cy="335.432" r="47.1746" fill="#FFCB16"/>
</g>
<path d="M193.152 207.454L186.146 213.993H170.732M193.152 207.454L215.571 140.662M193.152 207.454H186.146H175.87M215.571 140.662H204.829H193.152M215.571 140.662C215.571 140.662 187.191 129.161 166.995 128.543M115.617 140.662L134.767 207.454M115.617 140.662H137.103M115.617 140.662C115.617 140.662 145.219 128.603 165.127 128.518M134.767 207.454L142.24 213.993H159.522M134.767 207.454H153.917M134.767 207.454H175.87M193.152 140.662L175.87 207.454M193.152 140.662H165.127M175.87 207.454H165.127M137.103 140.662L153.917 207.454M137.103 140.662H146.911H157.654H172.6H165.127M153.917 207.454H161.391H168.864H165.127M165.127 140.662V207.454M165.127 128.518C165.741 128.515 166.364 128.524 166.995 128.543M165.127 128.518L166.995 128.543M159.522 213.993L161.391 225.203M159.522 213.993H162.325M161.391 225.203V304.605M161.391 225.203H163.259M170.732 213.993L168.397 225.203M170.732 213.993H167.93M168.397 225.203L168.864 304.605M168.397 225.203H166.528M168.864 304.605L171.666 311.144M168.864 304.605H166.528M161.391 304.605L158.588 311.144M161.391 304.605H163.259M158.588 311.144V388.679M158.588 311.144H160.923M171.666 311.144V389.146M171.666 311.144H168.864M171.666 389.146L175.403 396.152M171.666 389.146H168.864M158.588 388.679V389.146H160.456H160.923M158.588 388.679L154.851 396.152M154.851 396.152V604H157.887M154.851 396.152H157.654M175.403 396.152L175.87 604H172.133M175.403 396.152H172.133M165.361 604H162.325M165.361 604L164.66 396.152M165.361 604H172.133M162.325 604H160.923H157.887M162.325 604H157.887M157.887 604L157.654 396.152M167.93 213.993L165.127 225.203M167.93 213.993H162.325M165.127 225.203L162.325 213.993M165.127 225.203H163.259M165.127 225.203H166.528M163.259 225.203V304.138V304.605M163.259 304.605H166.528M163.259 304.605L160.923 310.677V311.144M166.528 304.605V225.203M166.528 304.605L168.864 310.677V311.144M160.923 311.144V389.146M160.923 311.144H164.66M168.864 311.144V389.146M168.864 311.144H164.66M168.864 389.146H166.061H165.361M168.864 389.146L172.133 396.152M164.66 389.146H163.726H163.259H162.792H161.391H160.923M164.66 389.146H165.361M164.66 389.146V311.144M164.66 389.146V396.152M165.361 389.146H160.923M160.923 389.146L157.654 396.152M157.654 396.152H164.66M172.133 396.152H164.66M172.133 396.152V604" stroke="black" stroke-opacity="0.6" stroke-linecap="round" stroke-linejoin="round"/>
<path d="M374.525 292.372L369.025 297.511H356.925M374.525 292.372L392.126 239.884M374.525 292.372H369.025H360.958M392.126 239.884H383.692H374.525M392.126 239.884C392.126 239.884 369.846 230.846 353.991 230.36M313.657 239.884L328.691 292.372M313.657 239.884H330.524M313.657 239.884C313.657 239.884 336.896 230.407 352.525 230.34M328.691 292.372L334.557 297.511H348.125M328.691 292.372H343.724M328.691 292.372H360.958M374.525 239.884L360.958 292.372M374.525 239.884H352.525M360.958 292.372H352.525M330.524 239.884L343.724 292.372M330.524 239.884H338.224H346.658H358.391H352.525M343.724 292.372H349.591H355.458H352.525M352.525 239.884V292.372M352.525 230.34C353.007 230.338 353.496 230.345 353.991 230.36M352.525 230.34L353.991 230.36M348.125 297.511L349.591 306.32M348.125 297.511H350.325M349.591 306.32V368.719M349.591 306.32H351.058M356.925 297.511L355.091 306.32M356.925 297.511H354.725M355.091 306.32L355.458 368.719M355.091 306.32H353.625M355.458 368.719L357.658 373.858M355.458 368.719H353.625M349.591 368.719L347.391 373.858M349.591 368.719H351.058M347.391 373.858V434.789M347.391 373.858H349.225M357.658 373.858V435.156M357.658 373.858H355.458M357.658 435.156L360.591 440.662M357.658 435.156H355.458M347.391 434.789V435.156H348.858H349.225M347.391 434.789L344.458 440.662M344.458 440.662V604H346.841M344.458 440.662H346.658M360.591 440.662L360.958 604H358.025M360.591 440.662H358.025M352.708 604H350.325M352.708 604L352.158 440.662M352.708 604H358.025M350.325 604H349.225H346.841M350.325 604H346.841M346.841 604L346.658 440.662M354.725 297.511L352.525 306.32M354.725 297.511H350.325M352.525 306.32L350.325 297.511M352.525 306.32H351.058M352.525 306.32H353.625M351.058 306.32V368.352V368.719M351.058 368.719H353.625M351.058 368.719L349.225 373.491V373.858M353.625 368.719V306.32M353.625 368.719L355.458 373.491V373.858M349.225 373.858V435.156M349.225 373.858H352.158M355.458 373.858V435.156M355.458 373.858H352.158M355.458 435.156H353.258H352.708M355.458 435.156L358.025 440.662M352.158 435.156H351.425H351.058H350.691H349.591H349.225M352.158 435.156H352.708M352.158 435.156V373.858M352.158 435.156V440.662M352.708 435.156H349.225M349.225 435.156L346.658 440.662M346.658 440.662H352.158M358.025 440.662H352.158M358.025 440.662V604" stroke="black" stroke-opacity="0.6" stroke-linecap="round" stroke-linejoin="round"/>
<path d="M553.917 360.151L549.595 364.172H540.088M553.917 360.151L567.746 319.079M553.917 360.151H549.595H543.257M567.746 319.079H561.119H553.917M567.746 319.079C567.746 319.079 550.24 312.007 537.783 311.627M506.092 319.079L517.904 360.151M506.092 319.079H519.345M506.092 319.079C506.092 319.079 524.351 311.664 536.631 311.611M517.904 360.151L522.514 364.172H533.174M517.904 360.151H529.716M517.904 360.151H543.257M553.917 319.079L543.257 360.151M553.917 319.079H536.631M543.257 360.151H536.631M519.345 319.079L529.716 360.151M519.345 319.079H525.395H532.021H541.24H536.631M529.716 360.151H534.326H538.936H536.631M536.631 319.079V360.151M536.631 311.611C537.01 311.61 537.394 311.615 537.783 311.627M536.631 311.611L537.783 311.627M533.174 364.172L534.326 371.066M533.174 364.172H534.902M534.326 371.066V419.893M534.326 371.066H535.478M540.088 364.172L538.647 371.066M540.088 364.172H538.359M538.647 371.066L538.936 419.893M538.647 371.066H537.495M538.936 419.893L540.664 423.914M538.936 419.893H537.495M534.326 419.893L532.597 423.914M534.326 419.893H535.478M532.597 423.914V471.592M532.597 423.914H534.038M540.664 423.914V471.879M540.664 423.914H538.936M540.664 471.879L542.969 476.188M540.664 471.879H538.936M532.597 471.592V471.879H533.75H534.038M532.597 471.592L530.293 476.188M530.293 476.188V604H532.165M530.293 476.188H532.021M542.969 476.188L543.257 604H540.952M542.969 476.188H540.952M536.775 604H534.902M536.775 604L536.343 476.188M536.775 604H540.952M534.902 604H534.038H532.165M534.902 604H532.165M532.165 604L532.021 476.188M538.359 364.172L536.631 371.066M538.359 364.172H534.902M536.631 371.066L534.902 364.172M536.631 371.066H535.478M536.631 371.066H537.495M535.478 371.066V419.606V419.893M535.478 419.893H537.495M535.478 419.893L534.038 423.627V423.914M537.495 419.893V371.066M537.495 419.893L538.936 423.627V423.914M534.038 423.914V471.879M534.038 423.914H536.343M538.936 423.914V471.879M538.936 423.914H536.343M538.936 471.879H537.207H536.775M538.936 471.879L540.952 476.188M536.343 471.879H535.766H535.478H535.19H534.326H534.038M536.343 471.879H536.775M536.343 471.879V423.914M536.343 471.879V476.188M536.775 471.879H534.038M534.038 471.879L532.021 476.188M532.021 476.188H536.343M540.952 476.188H536.343M540.952 476.188V604" stroke="black" stroke-opacity="0.6" stroke-linecap="round" stroke-linejoin="round"/>
<path d="M175.49 604V1175.13H295H414M155 604V1190.94L236.506 1192H369.011" stroke="black" stroke-opacity="0.6"/>
<path d="M158 605V771M165.5 605V931.5M172 605V1031" stroke="black" stroke-opacity="0.6"/>
<path d="M344.5 605V1027.5H564M361 605V1009.36H638" stroke="black" stroke-opacity="0.6"/>
<path d="M530 605V864H735M543 605V854.393H793" stroke="black" stroke-opacity="0.6"/>
<path d="M347 605V878.5M352.5 605V826M358 605V749.5M541 604.5V796.5M537 605V749.5M532 605V682.5" stroke="black" stroke-opacity="0.6"/>
<path d="M0 604.5C104.4 604.5 1029.83 604.5 1479.5 604.5" stroke="black" stroke-opacity="0.6"/>
<defs>
<filter id="filter0_f_507_162" x="-4" y="0.493164" width="339.188" height="339.188" filterUnits="userSpaceOnUse" color-interpolation-filters="sRGB">
<feFlood flood-opacity="0" result="BackgroundImageFix"/>
<feBlend mode="normal" in="SourceGraphic" in2="BackgroundImageFix" result="shape"/>
<feGaussianBlur stdDeviation="50" result="effect1_foregroundBlur_507_162"/>
</filter>
<filter id="filter1_f_507_162" x="212.172" y="116.711" width="281.439" height="281.44" filterUnits="userSpaceOnUse" color-interpolation-filters="sRGB">
<feFlood flood-opacity="0" result="BackgroundImageFix"/>
<feBlend mode="normal" in="SourceGraphic" in2="BackgroundImageFix" result="shape"/>
<feGaussianBlur stdDeviation="40" result="effect1_foregroundBlur_507_162"/>
</filter>
<filter id="filter2_f_507_162" x="429.277" y="228.257" width="214.349" height="214.349" filterUnits="userSpaceOnUse" color-interpolation-filters="sRGB">
<feFlood flood-opacity="0" result="BackgroundImageFix"/>
<feBlend mode="normal" in="SourceGraphic" in2="BackgroundImageFix" result="shape"/>
<feGaussianBlur stdDeviation="30" result="effect1_foregroundBlur_507_162"/>
</filter>
</defs>
</svg>
