<svg width="32" height="29" viewBox="0 0 32 29" fill="none" xmlns="http://www.w3.org/2000/svg">
<path d="M14.0143 26.5421L14.0136 26.5415C9.88344 22.8422 6.49601 19.8077 4.1351 16.9566C1.77974 14.1123 0.5 11.5128 0.5 8.6921C0.5 4.10646 4.14231 0.5 8.8 0.5C11.4349 0.5 13.9699 1.71397 15.6213 3.62948L16 4.06873L16.3787 3.62948C18.0301 1.71397 20.5651 0.5 23.2 0.5C27.8577 0.5 31.5 4.10646 31.5 8.6921C31.5 11.5128 30.2203 14.1123 27.8648 16.9588C25.5107 19.8035 22.1363 22.8324 18.0225 26.5248L17.9871 26.5566L17.986 26.5576L16.0013 28.3287L14.0143 26.5421Z" stroke="black"/>
</svg>
