<svg width="32" height="30" viewBox="0 0 32 30" fill="none" xmlns="http://www.w3.org/2000/svg">
<g opacity="0.5">
<path d="M13.3744 3.61466C10.9019 3.61466 8.53075 4.51969 6.78247 6.13065C5.0342 7.7416 4.05203 9.92653 4.05203 12.2048C4.05203 14.483 5.0342 16.6679 6.78247 18.2789C8.53075 19.8899 10.9019 20.7949 13.3744 20.7949C15.8468 20.7949 18.218 19.8899 19.9662 18.2789C21.7145 16.6679 22.6967 14.483 22.6967 12.2048C22.6967 9.92653 21.7145 7.7416 19.9662 6.13065C18.218 4.51969 15.8468 3.61466 13.3744 3.61466ZM0.94458 12.2048C0.944863 10.382 1.41725 8.58568 2.32248 6.96501C3.22771 5.34433 4.53965 3.94614 6.14925 2.88663C7.75885 1.82712 9.61963 1.13689 11.5769 0.873315C13.5343 0.609737 15.5316 0.780419 17.4029 1.37118C19.2742 1.96193 20.9655 2.9557 22.3362 4.2699C23.7069 5.58409 24.7174 7.18075 25.2838 8.92718C25.8501 10.6736 25.956 12.5194 25.5925 14.3111C25.229 16.1028 24.4067 17.7887 23.1939 19.2286L31.5638 26.9411C31.8468 27.2111 32.0034 27.5728 31.9999 27.9481C31.9963 28.3235 31.8329 28.6826 31.5449 28.9481C31.2568 29.2135 30.8671 29.3641 30.4597 29.3673C30.0523 29.3706 29.6599 29.2263 29.3668 28.9655L20.9969 21.253C19.1596 22.5674 16.9588 23.3804 14.6449 23.5995C12.331 23.8186 9.99686 23.435 7.90782 22.4924C5.81877 21.5498 4.05869 20.0859 2.82773 18.2672C1.59677 16.4486 0.944322 14.3481 0.94458 12.2048Z" fill="black"/>
</g>
</svg>
