<svg width="26" height="29" viewBox="0 0 26 29" fill="none" xmlns="http://www.w3.org/2000/svg">
<path d="M7.82521 3.13392C7.41013 3.13392 7.01206 3.29881 6.71856 3.59231C6.42505 3.88581 6.26017 4.28388 6.26017 4.69896C6.26017 5.11403 6.42505 5.51211 6.71856 5.80561C7.01206 6.09911 7.41013 6.264 7.82521 6.264C8.24028 6.264 8.63836 6.09911 8.93186 5.80561C9.22536 5.51211 9.39025 5.11403 9.39025 4.69896C9.39025 4.28388 9.22536 3.88581 8.93186 3.59231C8.63836 3.29881 8.24028 3.13392 7.82521 3.13392ZM3.39614 3.13392C3.71948 2.21753 4.31911 1.42401 5.11236 0.862713C5.90562 0.30142 6.85345 0 7.82521 0C8.79696 0 9.74479 0.30142 10.5381 0.862713C11.3313 1.42401 11.9309 2.21753 12.2543 3.13392H23.4756C23.8907 3.13392 24.2888 3.29881 24.5823 3.59231C24.8758 3.88581 25.0407 4.28388 25.0407 4.69896C25.0407 5.11403 24.8758 5.51211 24.5823 5.80561C24.2888 6.09911 23.8907 6.264 23.4756 6.264H12.2543C11.9309 7.18038 11.3313 7.97391 10.5381 8.53521C9.74479 9.0965 8.79696 9.39792 7.82521 9.39792C6.85345 9.39792 5.90562 9.0965 5.11236 8.53521C4.31911 7.97391 3.71948 7.18038 3.39614 6.264H1.56504C1.14997 6.264 0.751893 6.09911 0.45839 5.80561C0.164888 5.51211 0 5.11403 0 4.69896C0 4.28388 0.164888 3.88581 0.45839 3.59231C0.751893 3.29881 1.14997 3.13392 1.56504 3.13392H3.39614ZM17.2155 12.5242C16.8004 12.5242 16.4023 12.6891 16.1088 12.9826C15.8153 13.2761 15.6504 13.6741 15.6504 14.0892C15.6504 14.5043 15.8153 14.9024 16.1088 15.1959C16.4023 15.4894 16.8004 15.6543 17.2155 15.6543C17.6305 15.6543 18.0286 15.4894 18.3221 15.1959C18.6156 14.9024 18.7805 14.5043 18.7805 14.0892C18.7805 13.6741 18.6156 13.2761 18.3221 12.9826C18.0286 12.6891 17.6305 12.5242 17.2155 12.5242ZM12.7864 12.5242C13.1097 11.6078 13.7094 10.8143 14.5026 10.253C15.2959 9.69167 16.2437 9.39025 17.2155 9.39025C18.1872 9.39025 19.135 9.69167 19.9283 10.253C20.7216 10.8143 21.3212 11.6078 21.6445 12.5242H23.4756C23.8907 12.5242 24.2888 12.6891 24.5823 12.9826C24.8758 13.2761 25.0407 13.6741 25.0407 14.0892C25.0407 14.5043 24.8758 14.9024 24.5823 15.1959C24.2888 15.4894 23.8907 15.6543 23.4756 15.6543H21.6445C21.3212 16.5706 20.7216 17.3642 19.9283 17.9255C19.135 18.4867 18.1872 18.7882 17.2155 18.7882C16.2437 18.7882 15.2959 18.4867 14.5026 17.9255C13.7094 17.3642 13.1097 16.5706 12.7864 15.6543H1.56504C1.14997 15.6543 0.751893 15.4894 0.45839 15.1959C0.164888 14.9024 0 14.5043 0 14.0892C0 13.6741 0.164888 13.2761 0.45839 12.9826C0.751893 12.6891 1.14997 12.5242 1.56504 12.5242H12.7864ZM7.82521 21.9144C7.41013 21.9144 7.01206 22.0793 6.71856 22.3728C6.42505 22.6663 6.26017 23.0644 6.26017 23.4795C6.26017 23.8945 6.42505 24.2926 6.71856 24.5861C7.01206 24.8796 7.41013 25.0445 7.82521 25.0445C8.24028 25.0445 8.63836 24.8796 8.93186 24.5861C9.22536 24.2926 9.39025 23.8945 9.39025 23.4795C9.39025 23.0644 9.22536 22.6663 8.93186 22.3728C8.63836 22.0793 8.24028 21.9144 7.82521 21.9144ZM3.39614 21.9144C3.71948 20.998 4.31911 20.2045 5.11236 19.6432C5.90562 19.0819 6.85345 18.7805 7.82521 18.7805C8.79696 18.7805 9.74479 19.0819 10.5381 19.6432C11.3313 20.2045 11.9309 20.998 12.2543 21.9144H23.4756C23.8907 21.9144 24.2888 22.0793 24.5823 22.3728C24.8758 22.6663 25.0407 23.0644 25.0407 23.4795C25.0407 23.8945 24.8758 24.2926 24.5823 24.5861C24.2888 24.8796 23.8907 25.0445 23.4756 25.0445H12.2543C11.9309 25.9609 11.3313 26.7544 10.5381 27.3157C9.74479 27.877 8.79696 28.1784 7.82521 28.1784C6.85345 28.1784 5.90562 27.877 5.11236 27.3157C4.31911 26.7544 3.71948 25.9609 3.39614 25.0445H1.56504C1.14997 25.0445 0.751893 24.8796 0.45839 24.5861C0.164888 24.2926 0 23.8945 0 23.4795C0 23.0644 0.164888 22.6663 0.45839 22.3728C0.751893 22.0793 1.14997 21.9144 1.56504 21.9144H3.39614Z" fill="#512AEB"/>
</svg>
