<svg width="1480" height="800" viewBox="0 0 1480 800" fill="none" xmlns="http://www.w3.org/2000/svg">
<rect width="1480" height="800" fill="#EBEAF0"/>
<path d="M307.358 567.946C301.901 568.203 289.386 567.61 286.893 564.747C286.281 564.044 286.001 564.499 286 563.833M307.358 567.946C315.852 567.545 325.323 566.346 327.824 563.833C328.731 562.922 329.085 562.084 328.983 561.32M307.358 567.946V562.463M307.586 555.838L306.221 517M307.586 555.838C298.863 555.838 285.993 559.31 286 563.833M307.586 555.838C318.075 555.838 328.506 557.755 328.983 561.32M307.586 555.838L307.358 559.493M306.221 517L327.824 524.539L328.983 561.32M306.221 517L286 526.595V563.833M286 563.833L304.63 560.864M328.983 561.32L309.405 560.864M304.63 560.864C304.63 559.493 305.994 559.493 307.358 559.493M304.63 560.864C304.63 562.422 305.807 562.463 307.358 562.463M307.358 559.493C308.431 559.493 309.405 559.786 309.405 560.864M309.405 560.864C309.405 562.006 308.495 562.463 307.358 562.463" stroke="black" stroke-opacity="0.5"/>
<path d="M535.2 674.886C523.65 675.427 497.165 674.181 491.89 668.176C490.594 666.701 490.002 667.654 490 666.258M535.2 674.886C553.176 674.045 573.217 671.531 578.511 666.258C580.431 664.346 581.18 662.587 580.964 660.986M535.2 674.886V663.383M535.681 649.483L532.794 568M535.681 649.483C517.222 649.483 489.985 656.768 490 666.258M535.681 649.483C557.879 649.483 579.955 653.506 580.964 660.986M535.681 649.483L535.2 657.152M532.794 568L578.511 583.817L580.964 660.986M532.794 568L490 588.131V666.258M490 666.258L529.425 660.027M580.964 660.986L539.531 660.027M529.425 660.027C529.425 657.152 532.313 657.152 535.2 657.152M529.425 660.027C529.425 663.296 531.918 663.383 535.2 663.383M535.2 657.152C537.471 657.152 539.531 657.766 539.531 660.027M539.531 660.027C539.531 662.424 537.606 663.383 535.2 663.383" stroke="black" stroke-opacity="0.5"/>
<path d="M479.319 407.931C472.338 408.259 456.331 407.502 453.142 403.854C452.359 402.958 452.001 403.538 452 402.69M479.319 407.931C490.183 407.42 502.296 405.893 505.496 402.69C506.656 401.528 507.109 400.459 506.978 399.487M479.319 407.931V400.943M479.61 392.499L477.865 343M479.61 392.499C468.453 392.499 451.991 396.925 452 402.69M479.61 392.499C493.026 392.499 506.369 394.943 506.978 399.487M479.61 392.499L479.319 397.157M477.865 343L505.496 352.609L506.978 399.487M477.865 343L452 355.229V402.69M452 402.69L475.829 398.905M506.978 399.487L481.936 398.905M475.829 398.905C475.829 397.157 477.574 397.157 479.319 397.157M475.829 398.905C475.829 400.89 477.335 400.943 479.319 400.943M479.319 397.157C480.691 397.157 481.936 397.531 481.936 398.905M481.936 398.905C481.936 400.36 480.773 400.943 479.319 400.943" stroke="black" stroke-opacity="0.5"/>
<path d="M100.094 201.889C90.1042 202.415 67.1971 201.204 62.6343 195.368C61.5137 193.934 61.0019 194.861 61 193.504M100.094 201.889C115.641 201.071 132.975 198.628 137.553 193.504C139.214 191.646 139.862 189.936 139.675 188.38M100.094 201.889V190.709M100.51 177.2L98.0126 98.0098M100.51 177.2C84.5443 177.2 60.9868 184.281 61 193.504M100.51 177.2C119.709 177.2 138.802 181.111 139.675 188.38M100.51 177.2L100.094 184.654M98.0126 98.0098C98.0126 98.0098 133.881 97.0782 137.553 113.382C141.226 129.686 139.675 188.38 139.675 188.38M98.0126 98.0098C98.0126 98.0098 61 104.066 61 117.575C61 131.084 61 193.504 61 193.504M61 193.504L95.0991 187.449M139.675 188.38L103.84 187.449M95.0991 187.449C95.0991 184.654 97.5963 184.654 100.094 184.654M95.0991 187.449C95.0991 190.626 97.255 190.709 100.094 190.709M100.094 184.654C102.058 184.654 103.84 185.25 103.84 187.449M103.84 187.449C103.84 189.778 102.175 190.709 100.094 190.709" stroke="black" stroke-opacity="0.5"/>
<path d="M112.319 473.931C105.338 474.259 89.3306 473.502 86.142 469.854C85.3589 468.958 85.0014 469.538 85 468.69M112.319 473.931C123.183 473.42 135.296 471.893 138.496 468.69C139.656 467.528 140.109 466.459 139.978 465.487M112.319 473.931V466.943M112.61 458.499L110.865 409M112.61 458.499C101.453 458.499 84.9908 462.925 85 468.69M112.61 458.499C126.026 458.499 139.369 460.943 139.978 465.487M112.61 458.499L112.319 463.157M110.865 409L138.496 418.609L139.978 465.487M110.865 409L85 421.229V468.69M85 468.69L108.829 464.905M139.978 465.487L114.936 464.905M108.829 464.905C108.829 463.157 110.574 463.157 112.319 463.157M108.829 464.905C108.829 466.89 110.335 466.943 112.319 466.943M112.319 463.157C113.691 463.157 114.936 463.531 114.936 464.905M114.936 464.905C114.936 466.36 113.773 466.943 112.319 466.943" stroke="black" stroke-opacity="0.5"/>
<path d="M423.631 159.859C409.416 160.526 376.819 158.99 370.326 151.581C368.731 149.762 368.003 150.938 368 149.216M423.631 159.859C445.755 158.821 470.421 155.72 476.937 149.216C479.299 146.857 480.222 144.687 479.956 142.712M423.631 159.859V145.668M424.223 128.521L420.67 28M424.223 128.521C401.504 128.521 367.981 137.509 368 149.216M424.223 128.521C451.543 128.521 478.714 133.484 479.956 142.712M424.223 128.521L423.631 137.981M420.67 28L476.937 47.5128L479.956 142.712M420.67 28L368 52.8345V149.216M368 149.216L416.524 141.529M479.956 142.712L428.961 141.529M416.524 141.529C416.524 137.981 420.077 137.981 423.631 137.981M416.524 141.529C416.524 145.562 419.591 145.668 423.631 145.668M423.631 137.981C426.426 137.981 428.961 138.739 428.961 141.529M428.961 141.529C428.961 144.486 426.592 145.668 423.631 145.668" stroke="black" stroke-opacity="0.5"/>
<path d="M140.631 753.859C126.416 754.526 93.8186 752.99 87.3256 745.581C85.7309 743.762 85.0028 744.938 85 743.216M140.631 753.859C162.755 752.821 187.421 749.72 193.937 743.216C196.299 740.857 197.222 738.687 196.956 736.712M140.631 753.859V739.668M141.223 722.521L137.67 622M141.223 722.521C118.504 722.521 84.9812 731.509 85 743.216M141.223 722.521C168.543 722.521 195.714 727.484 196.956 736.712M141.223 722.521L140.631 731.981M137.67 622L193.937 641.513L196.956 736.712M137.67 622L85 646.835V743.216M85 743.216L133.524 735.529M196.956 736.712L145.961 735.529M133.524 735.529C133.524 731.981 137.077 731.981 140.631 731.981M133.524 735.529C133.524 739.562 136.591 739.668 140.631 739.668M140.631 731.981C143.426 731.981 145.961 732.739 145.961 735.529M145.961 735.529C145.961 738.486 143.592 739.668 140.631 739.668" stroke="black" stroke-opacity="0.5"/>
<path d="M271.763 330.909C262.624 331.339 241.669 330.349 237.495 325.579C236.47 324.407 236.002 325.164 236 324.056M271.763 330.909C285.985 330.241 301.842 328.244 306.031 324.056C307.55 322.537 308.142 321.139 307.972 319.867M271.763 330.909V321.771M272.144 310.729L269.859 246M272.144 310.729C257.538 310.729 235.988 316.517 236 324.056M272.144 310.729C289.706 310.729 307.173 313.925 307.972 319.867M272.144 310.729L271.763 316.821M269.859 246L306.031 258.565L307.972 319.867M269.859 246L236 261.992V324.056M236 324.056L267.194 319.106M307.972 319.867L275.19 319.106M267.194 319.106C267.194 316.821 269.478 316.821 271.763 316.821M267.194 319.106C267.194 321.703 269.166 321.771 271.763 321.771M271.763 316.821C273.559 316.821 275.19 317.309 275.19 319.106M275.19 319.106C275.19 321.01 273.667 321.771 271.763 321.771" stroke="black" stroke-opacity="0.5"/>
<path d="M918.358 567.946C912.901 568.203 900.386 567.61 897.893 564.747C897.281 564.044 897.001 564.499 897 563.833M918.358 567.946C926.852 567.545 936.323 566.346 938.824 563.833C939.731 562.922 940.085 562.084 939.983 561.32M918.358 567.946V562.463M918.586 555.838L917.221 517M918.586 555.838C909.863 555.838 896.993 559.31 897 563.833M918.586 555.838C929.075 555.838 939.506 557.755 939.983 561.32M918.586 555.838L918.358 559.493M917.221 517L938.824 524.539L939.983 561.32M917.221 517L897 526.595V563.833M897 563.833L915.63 560.864M939.983 561.32L920.405 560.864M915.63 560.864C915.63 559.493 916.994 559.493 918.358 559.493M915.63 560.864C915.63 562.422 916.807 562.463 918.358 562.463M918.358 559.493C919.431 559.493 920.405 559.786 920.405 560.864M920.405 560.864C920.405 562.006 919.495 562.463 918.358 562.463" stroke="black" stroke-opacity="0.5"/>
<path d="M1146.2 674.886C1134.65 675.427 1108.17 674.181 1102.89 668.176C1101.59 666.701 1101 667.654 1101 666.258M1146.2 674.886C1164.18 674.045 1184.22 671.531 1189.51 666.258C1191.43 664.346 1192.18 662.587 1191.96 660.986M1146.2 674.886V663.383M1146.68 649.483L1143.79 568M1146.68 649.483C1128.22 649.483 1100.98 656.768 1101 666.258M1146.68 649.483C1168.88 649.483 1190.96 653.506 1191.96 660.986M1146.68 649.483L1146.2 657.152M1143.79 568L1189.51 583.817L1191.96 660.986M1143.79 568L1101 588.131V666.258M1101 666.258L1140.43 660.027M1191.96 660.986L1150.53 660.027M1140.43 660.027C1140.43 657.152 1143.31 657.152 1146.2 657.152M1140.43 660.027C1140.43 663.296 1142.92 663.383 1146.2 663.383M1146.2 657.152C1148.47 657.152 1150.53 657.766 1150.53 660.027M1150.53 660.027C1150.53 662.424 1148.61 663.383 1146.2 663.383" stroke="black" stroke-opacity="0.5"/>
<path d="M1090.32 407.931C1083.34 408.259 1067.33 407.502 1064.14 403.854C1063.36 402.958 1063 403.538 1063 402.69M1090.32 407.931C1101.18 407.42 1113.3 405.893 1116.5 402.69C1117.66 401.528 1118.11 400.459 1117.98 399.487M1090.32 407.931V400.943M1090.61 392.499L1088.86 343M1090.61 392.499C1079.45 392.499 1062.99 396.925 1063 402.69M1090.61 392.499C1104.03 392.499 1117.37 394.943 1117.98 399.487M1090.61 392.499L1090.32 397.157M1088.86 343L1116.5 352.609L1117.98 399.487M1088.86 343L1063 355.229V402.69M1063 402.69L1086.83 398.905M1117.98 399.487L1092.94 398.905M1086.83 398.905C1086.83 397.157 1088.57 397.157 1090.32 397.157M1086.83 398.905C1086.83 400.89 1088.34 400.943 1090.32 400.943M1090.32 397.157C1091.69 397.157 1092.94 397.531 1092.94 398.905M1092.94 398.905C1092.94 400.36 1091.77 400.943 1090.32 400.943" stroke="black" stroke-opacity="0.5"/>
<path d="M702.963 205.5C690.963 206.064 663.445 204.764 657.963 198.5C656.617 196.962 656.002 197.956 656 196.5M702.963 205.5C721.64 204.622 742.463 202 747.964 196.5C749.958 194.505 750.737 192.67 750.512 191M702.963 205.5V193.5M703.463 179L700.463 94M703.463 179C684.284 179 655.984 186.6 656 196.5M703.463 179C726.527 179 749.464 183.197 750.512 191M703.463 179L702.963 187M700.463 94L747.964 110.5L750.512 191M700.463 94L656 115V196.5M656 196.5L696.963 190M750.512 191L707.463 190M696.963 190C696.963 187 699.963 187 702.963 187M696.963 190C696.963 193.41 699.553 193.5 702.963 193.5M702.963 187C705.323 187 707.463 187.641 707.463 190M707.463 190C707.463 192.5 705.463 193.5 702.963 193.5" stroke="black" stroke-opacity="0.5"/>
<path d="M723.319 473.931C716.338 474.259 700.331 473.502 697.142 469.854C696.359 468.958 696.001 469.538 696 468.69M723.319 473.931C734.183 473.42 746.296 471.893 749.496 468.69C750.656 467.528 751.109 466.459 750.978 465.487M723.319 473.931V466.943M723.61 458.499L721.865 409M723.61 458.499C712.453 458.499 695.991 462.925 696 468.69M723.61 458.499C737.026 458.499 750.369 460.943 750.978 465.487M723.61 458.499L723.319 463.157M721.865 409L749.496 418.609L750.978 465.487M721.865 409L696 421.229V468.69M696 468.69L719.829 464.905M750.978 465.487L725.936 464.905M719.829 464.905C719.829 463.157 721.574 463.157 723.319 463.157M719.829 464.905C719.829 466.89 721.335 466.943 723.319 466.943M723.319 463.157C724.691 463.157 725.936 463.531 725.936 464.905M725.936 464.905C725.936 466.36 724.773 466.943 723.319 466.943" stroke="black" stroke-opacity="0.5"/>
<path d="M1034.63 159.859C1020.42 160.526 987.819 158.99 981.326 151.581C979.731 149.762 979.003 150.938 979 149.216M1034.63 159.859C1056.75 158.821 1081.42 155.72 1087.94 149.216C1090.3 146.857 1091.22 144.687 1090.96 142.712M1034.63 159.859V145.668M1035.22 128.521L1031.67 28M1035.22 128.521C1012.5 128.521 978.981 137.509 979 149.216M1035.22 128.521C1062.54 128.521 1089.71 133.484 1090.96 142.712M1035.22 128.521L1034.63 137.981M1031.67 28L1087.94 47.5128L1090.96 142.712M1031.67 28L979 52.8345V149.216M979 149.216L1027.52 141.529M1090.96 142.712L1039.96 141.529M1027.52 141.529C1027.52 137.981 1031.08 137.981 1034.63 137.981M1027.52 141.529C1027.52 145.562 1030.59 145.668 1034.63 145.668M1034.63 137.981C1037.43 137.981 1039.96 138.739 1039.96 141.529M1039.96 141.529C1039.96 144.486 1037.59 145.668 1034.63 145.668" stroke="black" stroke-opacity="0.5"/>
<path d="M751.631 753.859C737.416 754.526 704.819 752.99 698.326 745.581C696.731 743.762 696.003 744.938 696 743.216M751.631 753.859C773.755 752.821 798.421 749.72 804.937 743.216C807.299 740.857 808.222 738.687 807.956 736.712M751.631 753.859V739.668M752.223 722.521L748.67 622M752.223 722.521C729.504 722.521 695.981 731.509 696 743.216M752.223 722.521C779.543 722.521 806.714 727.484 807.956 736.712M752.223 722.521L751.631 731.981M748.67 622L804.937 641.513L807.956 736.712M748.67 622L696 646.835V743.216M696 743.216L744.524 735.529M807.956 736.712L756.961 735.529M744.524 735.529C744.524 731.981 748.077 731.981 751.631 731.981M744.524 735.529C744.524 739.562 747.591 739.668 751.631 739.668M751.631 731.981C754.426 731.981 756.961 732.739 756.961 735.529M756.961 735.529C756.961 738.486 754.592 739.668 751.631 739.668" stroke="black" stroke-opacity="0.5"/>
<path d="M882.763 330.909C873.624 331.339 852.669 330.349 848.495 325.579C847.47 324.407 847.002 325.164 847 324.056M882.763 330.909C896.985 330.241 912.842 328.244 917.031 324.056C918.55 322.537 919.142 321.139 918.972 319.867M882.763 330.909V321.771M883.144 310.729L880.859 246M883.144 310.729C868.538 310.729 846.988 316.517 847 324.056M883.144 310.729C900.706 310.729 918.173 313.925 918.972 319.867M883.144 310.729L882.763 316.821M880.859 246L917.031 258.565L918.972 319.867M880.859 246L847 261.992V324.056M847 324.056L878.194 319.106M918.972 319.867L886.19 319.106M878.194 319.106C878.194 316.821 880.478 316.821 882.763 316.821M878.194 319.106C878.194 321.703 880.166 321.771 882.763 321.771M882.763 316.821C884.559 316.821 886.19 317.309 886.19 319.106M886.19 319.106C886.19 321.01 884.667 321.771 882.763 321.771" stroke="black" stroke-opacity="0.5"/>
<path d="M1328.96 222.5C1316.96 223.064 1289.44 221.764 1283.96 215.5C1282.62 213.962 1282 214.956 1282 213.5M1328.96 222.5C1347.64 221.622 1368.46 219 1373.96 213.5C1375.96 211.505 1376.74 209.67 1376.51 208M1328.96 222.5V210.5M1329.46 196L1326.46 111M1329.46 196C1310.28 196 1281.98 203.6 1282 213.5M1329.46 196C1352.53 196 1375.46 200.197 1376.51 208M1329.46 196L1328.96 204M1326.46 111L1373.96 127.5L1376.51 208M1326.46 111L1282 132V213.5M1282 213.5L1322.96 207M1376.51 208L1333.46 207M1322.96 207C1322.96 204 1325.96 204 1328.96 204M1322.96 207C1322.96 210.41 1325.55 210.5 1328.96 210.5M1328.96 204C1331.32 204 1333.46 204.641 1333.46 207M1333.46 207C1333.46 209.5 1331.46 210.5 1328.96 210.5" stroke="black" stroke-opacity="0.5"/>
<path d="M1349.32 490.931C1342.34 491.259 1326.33 490.502 1323.14 486.854C1322.36 485.958 1322 486.538 1322 485.69M1349.32 490.931C1360.18 490.42 1372.3 488.893 1375.5 485.69C1376.66 484.528 1377.11 483.459 1376.98 482.487M1349.32 490.931V483.943M1349.61 475.499L1347.86 426M1349.61 475.499C1338.45 475.499 1321.99 479.925 1322 485.69M1349.61 475.499C1363.03 475.499 1376.37 477.943 1376.98 482.487M1349.61 475.499L1349.32 480.157M1347.86 426L1375.5 435.609L1376.98 482.487M1347.86 426L1322 438.229V485.69M1322 485.69L1345.83 481.905M1376.98 482.487L1351.94 481.905M1345.83 481.905C1345.83 480.157 1347.57 480.157 1349.32 480.157M1345.83 481.905C1345.83 483.89 1347.34 483.943 1349.32 483.943M1349.32 480.157C1350.69 480.157 1351.94 480.531 1351.94 481.905M1351.94 481.905C1351.94 483.36 1350.77 483.943 1349.32 483.943" stroke="black" stroke-opacity="0.5"/>
<path d="M1377.63 770.859C1363.42 771.526 1330.82 769.99 1324.33 762.581C1322.73 760.762 1322 761.938 1322 760.216M1377.63 770.859C1399.75 769.821 1424.42 766.72 1430.94 760.216C1433.3 757.857 1434.22 755.687 1433.96 753.712M1377.63 770.859V756.668M1378.22 739.521L1374.67 639M1378.22 739.521C1355.5 739.521 1321.98 748.509 1322 760.216M1378.22 739.521C1405.54 739.521 1432.71 744.484 1433.96 753.712M1378.22 739.521L1377.63 748.981M1374.67 639L1430.94 658.513L1433.96 753.712M1374.67 639L1322 663.835V760.216M1322 760.216L1370.52 752.529M1433.96 753.712L1382.96 752.529M1370.52 752.529C1370.52 748.981 1374.08 748.981 1377.63 748.981M1370.52 752.529C1370.52 756.562 1373.59 756.668 1377.63 756.668M1377.63 748.981C1380.43 748.981 1382.96 749.739 1382.96 752.529M1382.96 752.529C1382.96 755.486 1380.59 756.668 1377.63 756.668" stroke="black" stroke-opacity="0.5"/>
<path d="M99.5823 200.851C99.5823 202.818 100.845 200.713 100.259 200.583C98.4339 200.178 99.7298 202.56 100.652 201.637C101.455 200.834 99.1234 199.882 99.5981 201.543C99.7452 202.058 101.079 201.369 100.589 200.851C99.8972 200.118 99.5823 200.816 99.5823 201.417" stroke="black" stroke-opacity="0.5" stroke-linecap="round"/>
<path d="M99.5826 201.7C99.3841 199.913 96.7016 202.401 96.3414 202.833C94.6181 204.901 93.393 206.923 95.5075 209.221C99.0075 213.025 103.562 215.654 106.663 219.826C108.02 221.652 108.897 223.643 108.582 225.962C108.119 229.372 104.432 231.169 101.848 232.853" stroke="black" stroke-opacity="0.5" stroke-linecap="round"/>
<path d="M100.208 213.802C100.227 214.165 100.445 214.514 100.592 214.838C101.169 216.11 101.716 217.492 101.828 218.895C101.982 220.829 101.002 222.488 99.7877 223.913C98.501 225.421 97.0998 226.825 95.8291 228.35" stroke="black" stroke-opacity="0.5" stroke-linecap="round"/>
<path d="M95.617 228.35C95.3082 227.492 94.909 226.688 94.644 225.807C94.3999 224.997 94.1507 224.127 94.079 223.281C93.9512 221.773 94.3082 220.304 94.7421 218.867C95.0673 217.79 95.7161 216.777 96.433 215.917C96.8434 215.424 97.2939 215.018 97.8493 214.689C98.5417 214.279 99.3461 213.819 100.137 213.661" stroke="black" stroke-opacity="0.5" stroke-linecap="round"/>
<path d="M107.022 228.675C106.776 228.675 106.535 228.63 106.282 228.63C105.338 228.63 104.313 228.841 103.435 229.175C101.708 229.832 100.196 230.84 98.9107 232.158C97.9959 233.096 97.1649 234.105 96.547 235.265C96.0061 236.281 95.4338 237.351 95.0703 238.442" stroke="black" stroke-opacity="0.5" stroke-linecap="round"/>
<path d="M95.249 238.442C95.3292 238.5 95.4319 238.486 95.5265 238.486C95.8518 238.486 96.1776 238.492 96.5027 238.484C97.9482 238.448 99.4068 238.133 100.794 237.748C102.035 237.404 103.212 237.029 104.278 236.291C105.597 235.378 106.196 233.884 106.934 232.51" stroke="black" stroke-opacity="0.5" stroke-linecap="round"/>
</svg>
